# xmcd
#
# Track frame offsets: 
#        182
#        17582
#        38637
#        60602
#        82220
#        102682
#
# Disc length: 1584 seconds
#
# Revision: 0
# Processed by: cddbd v1.5.2PL0 Copyright (c) Steve Scherf et al.
# Submitted via: ExactAudioCopy v0.99pb4
#
DISCID=49062e06
DTITLE=Capone -N- Noreaga - Illegal Life-Stick You
DYEAR=1996
DGENRE=Hip-Hop
TTITLE0=Illegal Life
TTITLE1=Illegal Life (Instrumental)
TTITLE2=L.A., L.A. (Kuwait Mix by Marley Marl)
TTITLE3=Stick You
TTITLE4=Stick You (Instrumental)
TTITLE5=L.A., L.A. (Iraq Mix)
EXTD=
EXTT0=
EXTT1=
EXTT2=
EXTT3=
EXTT4=
EXTT5=
PLAYORDER=
